<svg xmlns="http://www.w3.org/2000/svg" width="66" height="100.8"><path fill="#fff" d="M56.33 9.23c-12.9-12.3-33.77-12.3-46.67 0-12.9 12.3-12.9 32.25 0 44.54 0 0 23.32 21.83 23.32 47.03 0-25.2 23.34-47.03 23.34-47.03 12.9-12.3 12.9-32.25.01-44.54z"/><path fill="#6bc6b3" d="M47.04 45.52c-.64-3.28.13-6.95.03-10.28-.12-3.75-.7-7.48-.66-11.25.04-3.04.54-6.17-.5-9.1l.2-1c.27-1.46-4.58-.7-5.34.65-.48.4-.73.86-.52 1.34a8.6 8.6 0 0 1 .14.37c-.92 4.48-2.2 8.83-3.67 13.17-.56 1.66-1.24 3.3-1.82 4.95-.8-1.54-1.64-3.07-2.3-4.73-1.92-4.8-3.66-9.66-6-14.28.27-2.14-4.48-1.92-5.42.04-1.13 2.37-1 4.76-.6 7.3.42 2.86.5 5.67.53 8.55.07 5.57.5 11.12.58 16.68-.5.55-.65 1.23-.13 1.92.23.3.5.53.8.77 1.27 1 4.9.15 4.9-1.78-.02-5.77-.44-11.53-.6-17.3l-.03-1.7.24.6c.9 2.24 1.83 4.43 3.06 6.5 1.2 2.07 1.82 4.3 2.52 6.55-.27.3-.42.65-.33 1-.05.25.1.4.35.5.9.77 2.58.38 3.5-.01a8.3 8.3 0 0 0 1.16-.59c.48-.3 1.24-.95 1.02-1.62l-.12-.4c.66-1.78 1-3.62 1.35-5.5.38-2 1.1-3.9 1.8-5.8l.22 2.6c.28 3.58.05 7.1.01 10.67a16.2 16.2 0 0 0 .31 3.45c.1.48.5 2.53.4 2.64-.85.8-.6 1.76.54 2 1.28.28 2.9-.15 3.88-1.04 1.68-1.55.88-3.98.5-5.94z"/></svg>